<svg width="24" height="24" viewBox="0 0 24 24" fill="currentColor" xmlns="http://www.w3.org/2000/svg">
<path fill-rule="evenodd" clip-rule="evenodd" d="M9.75 3H20.25C21.2165 3 22 3.7835 22 4.75V15.25C22 16.2165 21.2165 17 20.25 17H9.75C8.7835 17 8 16.2165 8 15.25V4.75C8 3.7835 8.7835 3 9.75 3ZM9.75 4.5C9.61193 4.5 9.5 4.61193 9.5 4.75V15.25C9.5 15.3881 9.61193 15.5 9.75 15.5H20.25C20.3881 15.5 20.5 15.3881 20.5 15.25V4.75C20.5 4.61193 20.3881 4.5 20.25 4.5L9.75 4.5ZM16.25 17.75C15.8358 17.75 15.5 18.0858 15.5 18.5V20.25C15.5 20.3881 15.3881 20.5 15.25 20.5H4.75C4.61193 20.5 4.5 20.3881 4.5 20.25V9.75C4.5 9.61193 4.61193 9.5 4.75 9.5H6.5C6.91421 9.5 7.25 9.16421 7.25 8.75C7.25 8.33579 6.91421 8 6.5 8H4.75C3.7835 8 3 8.7835 3 9.75V20.25C3 21.2165 3.7835 22 4.75 22H15.25C16.2165 22 17 21.2165 17 20.25V18.5C17 18.0858 16.6642 17.75 16.25 17.75Z" />
</svg>
